<svg width="2340" height="1020" viewBox="0 0 2340 1020" fill="none" xmlns="http://www.w3.org/2000/svg">
<g clip-path="url(#clip0_366_2386)">
<rect width="2340" height="1020" fill="black"/>
<path d="M301.5 339L342 330.5C332.5 275.5 302 244.5 236.5 244.5C166.5 244.5 120 290.5 120 368C120 445.5 164.5 490 238 490C300.5 490 332.5 458 343 404.5L303 394C294.5 425.5 280.5 451.5 237.5 451.5C190 451.5 164.5 419 164.5 367.5C164.5 311.5 191.5 283 235.5 283C277.5 283 293.5 304.5 301.5 339ZM433.859 484V368.5C433.859 316 454.359 296 504.859 296H516.859V248H507.859C471.859 248 447.859 266 435.859 317L432.359 316.5V250.5H390.359V484H433.859ZM656.387 279C699.387 279 719.887 304 721.887 348.5H585.387C590.387 302 615.387 279 656.387 279ZM658.387 489.5C718.887 489.5 748.887 461.5 760.387 417L722.387 406.5C714.887 432.5 700.387 453.5 658.387 453.5C613.387 453.5 588.387 427.5 584.887 380H760.887C761.887 369.5 762.387 359 762.387 352C762.387 287.5 727.387 244.5 657.387 244.5C586.887 244.5 541.387 291 541.387 369C541.387 446.5 585.887 489.5 658.387 489.5ZM882.805 454C848.305 454 836.805 437.5 836.805 419C836.805 396 854.305 384 884.805 384H953.305V397C953.305 430 925.805 454 882.805 454ZM955.305 484H996.805V334.5C996.805 276.5 968.305 245 903.305 245C847.305 245 813.805 272.5 804.305 317.5L845.305 327.5C852.805 296.5 870.305 281 901.805 281C939.805 281 953.305 300 953.305 335V354H878.305C821.305 354 795.305 383.5 795.305 424C795.305 469 823.805 489 867.805 489C909.305 489 939.305 467 950.805 428.5H955.305V484ZM1070.39 414.5C1070.39 458 1091.89 490 1140.89 490C1162.39 490 1174.89 487 1190.89 482L1185.39 443.5C1172.89 447 1162.39 449.5 1149.89 449.5C1123.89 449.5 1113.89 436 1113.89 409.5V286.5H1188.39V250.5H1113.89V185H1070.39V250.5H1034.89V286.5H1070.39V414.5ZM1283.17 205.5V166H1233.17V205.5H1283.17ZM1279.67 484V250.5H1236.17V484H1279.67ZM1447.94 490C1521.94 490 1564.94 442.5 1564.94 366.5C1564.94 290 1518.44 244.5 1447.94 244.5C1376.94 244.5 1330.94 290 1330.94 366.5C1330.94 442.5 1373.94 490 1447.94 490ZM1447.94 282C1495.94 282 1521.44 313.5 1521.44 366C1521.44 418.5 1496.94 452 1447.44 452C1397.94 452 1374.44 418.5 1374.44 366C1374.44 313.5 1399.94 282 1447.94 282ZM1655.05 350.5C1655.05 310.5 1683.05 284 1724.55 284C1762.05 284 1775.05 308 1775.05 340V484H1818.55V329.5C1818.55 278.5 1795.05 244.5 1743.05 244.5C1702.55 244.5 1671.55 269.5 1658.55 311H1654.05V250.5H1611.55V484H1655.05V350.5ZM1968.16 490C2033.16 490 2060.66 462 2060.66 420.5C2060.66 383 2038.16 361 1971.16 349C1925.16 341.5 1913.16 328.5 1913.16 310C1913.16 289.5 1928.66 277 1959.66 277C1990.16 277 2006.66 289 2014.16 321.5L2054.16 313C2043.66 271 2022.16 244.5 1960.66 244.5C1901.16 244.5 1871.16 271.5 1871.16 312.5C1871.16 349.5 1893.66 371 1954.16 382C2003.16 390.5 2018.66 400 2018.66 422C2018.16 444.5 2001.66 457 1968.66 457C1924.66 457 1907.66 435.5 1899.66 405L1860.16 413C1869.66 459.5 1895.16 490 1968.16 490Z" fill="white"/>
<path d="M503 771.5C461 771.5 434 741 434 697V679C434 633 461 604 503 604C547.5 604 568 631 568 687.5C568 743.5 547 771.5 503 771.5ZM434 483H390.5V804H434V741H437C448.5 781 477 810 522.5 810C577.5 810 611 767 611 687.5C611 608.5 579 564.5 520.5 564.5C475.5 564.5 449 592 437.5 632H434V483ZM665.578 890C715.078 890 743.578 865 768.078 807L867.078 570.5H820.578L792.078 654.5C782.078 685 767.078 728 754.578 765.5H747.078C735.078 729 718.578 684.5 707.578 654L677.578 570.5H629.578L728.578 802C710.078 843.5 694.578 850.5 667.078 850.5C657.078 850.5 647.578 849 637.078 847L630.078 887C640.578 888.5 651.078 890 665.578 890Z" fill="white"/>
<path d="M1091.5 659L1132 650.5C1122.5 595.5 1092 564.5 1026.5 564.5C956.5 564.5 910 610.5 910 688C910 765.5 954.5 810 1028 810C1090.5 810 1122.5 778 1133 724.5L1093 714C1084.5 745.5 1070.5 771.5 1027.5 771.5C980 771.5 954.5 739 954.5 687.5C954.5 631.5 981.5 603 1025.5 603C1067.5 603 1083.5 624.5 1091.5 659ZM1282.86 810C1356.86 810 1399.86 762.5 1399.86 686.5C1399.86 610 1353.36 564.5 1282.86 564.5C1211.86 564.5 1165.86 610 1165.86 686.5C1165.86 762.5 1208.86 810 1282.86 810ZM1282.86 602C1330.86 602 1356.36 633.5 1356.36 686C1356.36 738.5 1331.86 772 1282.36 772C1232.86 772 1209.36 738.5 1209.36 686C1209.36 633.5 1234.86 602 1282.86 602ZM1489.97 804V688.5C1489.97 636 1510.47 616 1560.97 616H1572.97V568H1563.97C1527.97 568 1503.97 586 1491.97 637L1488.47 636.5V570.5H1446.47V804H1489.97ZM1724.5 771.5C1682.5 771.5 1655.5 741 1655.5 697V679C1655.5 633 1682.5 604 1724.5 604C1769 604 1789.5 631 1789.5 687.5C1789.5 743.5 1768.5 771.5 1724.5 771.5ZM1655.5 483H1612V804H1655.5V741H1658.5C1670 781 1698.5 810 1744 810C1799 810 1832.5 767 1832.5 687.5C1832.5 608.5 1800.5 564.5 1742 564.5C1697 564.5 1670.5 592 1659 632H1655.5V483ZM1970.08 810C2035.08 810 2062.58 782 2062.58 740.5C2062.58 703 2040.08 681 1973.08 669C1927.08 661.5 1915.08 648.5 1915.08 630C1915.08 609.5 1930.58 597 1961.58 597C1992.08 597 2008.58 609 2016.08 641.5L2056.08 633C2045.58 591 2024.08 564.5 1962.58 564.5C1903.08 564.5 1873.08 591.5 1873.08 632.5C1873.08 669.5 1895.58 691 1956.08 702C2005.08 710.5 2020.58 720 2020.58 742C2020.08 764.5 2003.58 777 1970.58 777C1926.58 777 1909.58 755.5 1901.58 725L1862.08 733C1871.58 779.5 1897.08 810 1970.08 810Z" fill="white"/>
</g>
<defs>
<clipPath id="clip0_366_2386">
<rect width="2340" height="1020" fill="white"/>
</clipPath>
</defs>
</svg>
